<?xml version="1.0" standalone="no"?>
<!DOCTYPE svg PUBLIC "-//W3C//DTD SVG 20010904//EN"
 "http://www.w3.org/TR/2001/REC-SVG-20010904/DTD/svg10.dtd">
<svg version="1.0" xmlns="http://www.w3.org/2000/svg"
 width="600.000000pt" height="600.000000pt" viewBox="0 0 600.000000 600.000000"
 preserveAspectRatio="xMidYMid meet">
<metadata>
Created by potrace 1.14, written by Peter Selinger 2001-2017
</metadata>
<g transform="translate(0.000000,600.000000) scale(0.100000,-0.100000)"
fill="#000000" stroke="none">
<path d="M4304 5645 c-38 -12 -91 -34 -119 -49 -48 -27 -155 -95 -165 -106 -3
-3 -18 -16 -35 -29 -113 -86 -356 -327 -490 -487 -22 -26 -53 -63 -70 -82 -77
-90 -255 -321 -348 -450 l-102 -143 -30 34 c-16 19 -52 61 -80 93 -99 117
-246 267 -354 363 -35 31 -68 61 -75 66 -30 27 -171 129 -172 125 -1 -3 -10 2
-20 12 -29 25 -153 84 -216 103 -66 19 -157 16 -203 -6 -60 -29 -118 -111
-142 -201 -9 -34 -9 -334 0 -393 14 -88 48 -246 72 -337 3 -10 7 -26 9 -35 11
-44 75 -242 89 -276 9 -20 16 -40 16 -42 0 -3 9 -30 20 -61 12 -30 21 -59 21
-63 0 -5 -39 -14 -87 -21 -49 -7 -97 -14 -108 -16 -11 -2 -45 -8 -75 -14 -66
-12 -81 -15 -140 -29 -25 -5 -56 -12 -70 -15 -14 -3 -40 -9 -57 -15 -18 -5
-33 -8 -33 -5 0 3 -8 0 -19 -5 -10 -6 -33 -13 -52 -16 -103 -18 -518 -183
-539 -215 -3 -4 -16 -13 -28 -19 -56 -30 -145 -119 -174 -175 -11 -21 -22 -63
-25 -92 -17 -166 194 -338 582 -472 80 -28 158 -51 192 -58 6 -1 27 -7 45 -13
18 -6 44 -12 58 -15 14 -2 52 -11 85 -19 33 -9 130 -27 215 -42 85 -15 165
-28 177 -31 21 -4 20 -8 -29 -116 -74 -166 -188 -447 -188 -463 0 -8 -4 -15
-8 -15 -5 0 -9 -6 -10 -12 0 -7 -32 -105 -71 -218 -62 -177 -143 -464 -156
-553 -10 -60 -14 -83 -18 -112 -10 -59 -19 -130 -18 -142 3 -32 2 -40 -2 -71
-2 -18 -1 -35 4 -38 4 -2 5 -14 0 -25 -4 -13 0 -50 11 -93 27 -110 49 -145
112 -178 104 -53 258 0 476 165 84 64 354 322 451 432 118 134 322 386 369
455 8 12 23 32 33 43 11 12 55 74 100 137 94 133 106 147 115 134 18 -26 98
-130 103 -134 3 -3 25 -27 48 -55 142 -169 343 -373 456 -464 39 -31 75 -60
81 -66 6 -5 22 -17 34 -25 12 -8 28 -21 36 -27 7 -7 15 -13 18 -13 3 0 29 -15
58 -33 189 -119 353 -137 455 -49 32 28 71 109 87 182 14 65 15 291 1 370 -40
224 -62 318 -123 510 -20 63 -37 117 -37 120 -1 3 -5 14 -10 25 -4 11 -33 89
-65 172 l-57 153 31 5 c17 3 47 7 66 10 19 2 45 6 56 9 12 2 38 7 59 10 70 11
240 47 288 61 26 8 47 12 47 9 0 -3 8 0 19 5 10 6 32 13 48 15 16 3 76 21 134
41 57 19 111 37 119 39 88 25 296 133 368 191 102 83 147 156 147 240 0 141
-107 254 -355 373 -92 44 -331 132 -400 146 -14 3 -50 12 -80 21 -113 31 -471
99 -512 97 -10 0 -20 3 -22 7 -3 5 34 102 83 217 108 257 103 246 107 264 2 8
8 23 13 35 11 20 59 147 66 175 2 8 23 69 45 135 23 66 43 128 45 137 2 10 16
62 30 115 15 54 29 109 31 123 3 14 7 32 10 40 23 65 45 226 50 375 6 209 -34
319 -134 362 -51 22 -92 21 -168 -2z"/>
<path d="M4768 4403 c-85 -48 -129 -116 -136 -213 -14 -200 182 -332 364 -245
17 8 47 32 66 53 93 103 90 253 -6 360 -63 71 -203 93 -288 45z"/>
<path d="M805 1897 c-60 -24 -92 -47 -119 -85 -74 -108 -62 -247 28 -330 49
-44 88 -61 148 -65 71 -5 128 16 178 65 54 52 74 98 75 178 2 74 -23 134 -75
185 -59 56 -164 79 -235 52z"/>
</g>
</svg>
